PathFileType  4	(X/Y/Z) C:\Inversekin\DARPA\DARPA11\Files_W_HJCs\
DataRate	CameraRate	NumFrames	NumMarkers	Units	OrigDataRate	OrigDataStartFrame	OrigNumFrames
  100.0		  100.0		    4		     41		 mm	  100.0	      60	    238
Frame#	Time	R.Shoulder			L.Shoulder			R.Clavicle			L.Clavicle			R.Biceps			R.Elbow			R.Forearm			R.Wrist			L.Biceps			L.Elbow			L.Forearm			L.Wrist			R.ASIS			L.ASIS			R.PSIS			S2			L.PSIS			R.TH1			R.TH2			R.TH3			R.Knee			R.SH1			R.SH2			R.SH3			R.SH4			R.Ankle			R.Heel			R.MT5			R.Toe			L.TH1			L.TH2			L.TH3			L.TH4			L.Knee			L.SH1			L.SH2			L.SH3			L.Ankle			L.Heel			L.MT5			L.Toe			
		X1	Y1	Z1	X2	Y2	Z2	X3	Y3	Z3	X4	Y4	Z4	X5	Y5	Z5	X6	Y6	Z6	X7	Y7	Z7	X8	Y8	Z8	X9	Y9	Z9	X10	Y10	Z10	X11	Y11	Z11	X12	Y12	Z12	X13	Y13	Z13	X14	Y14	Z14	X15	Y15	Z15	X16	Y16	Z16	X17	Y17	Z17	X18	Y18	Z18	X19	Y19	Z19	X20	Y20	Z20	X21	Y21	Z21	X22	Y22	Z22	X23	Y23	Z23	X24	Y24	Z24	X25	Y25	Z25	X26	Y26	Z26	X27	Y27	Z27	X28	Y28	Z28	X29	Y29	Z29	X30	Y30	Z30	X31	Y31	Z31	X32	Y32	Z32	X33	Y33	Z33	X34	Y34	Z34	X35	Y35	Z35	X36	Y36	Z36	X37	Y37	Z37	X38	Y38	Z38	X39	Y39	Z39	X40	Y40	Z40	X41	Y41	Z41	

60	0.59000	105.904	1530.297	-44.077	97.023	1548.855	-386.689	164.670	1495.276	-191.908	164.459	1497.743	-242.128	136.606	1267.285	29.175	88.544	1179.327	64.747	178.154	1059.561	70.231	227.032	945.626	71.450	104.629	1323.534	-476.409	80.484	1201.875	-503.092	162.493	1085.457	-516.206	216.284	983.426	-511.107	207.929	1029.826	-102.092	183.743	1031.184	-354.261	-9.002	1026.168	-164.094	-23.495	1000.748	-206.578	-16.585	1021.149	-255.016	201.541	787.984	-40.302	94.627	764.852	-26.799	108.624	641.372	-66.113	167.920	520.467	-100.556	177.154	420.933	-99.252	161.880	309.356	-101.496	93.260	426.843	-91.307	77.036	307.963	-98.469	103.266	109.147	-136.594	21.940	38.509	-187.669	212.346	36.762	-99.646	322.278	56.854	-196.863	262.493	844.445	-402.517	307.322	721.552	-396.880	169.262	820.133	-446.525	198.831	688.798	-427.286	260.102	557.885	-404.255	229.946	444.571	-390.456	163.898	516.175	-402.368	82.602	435.934	-381.061	-13.822	248.436	-342.227	-118.305	252.053	-277.055	1.415	119.604	-380.340	103.048	64.104	-303.675
61	0.60000	118.125	1531.956	-44.123	107.885	1549.780	-386.521	175.991	1496.640	-191.930	175.551	1498.696	-242.345	151.070	1269.395	29.482	104.203	1180.999	65.262	195.603	1062.760	70.231	245.710	949.426	71.059	112.730	1324.694	-477.025	87.128	1203.566	-503.652	167.612	1086.250	-518.444	220.755	983.681	-514.356	219.322	1030.112	-101.287	195.813	1033.292	-353.361	2.843	1027.332	-164.504	-11.486	1001.833	-207.003	-5.083	1022.397	-255.476	208.951	787.397	-40.178	102.435	765.929	-26.831	114.409	642.365	-66.484	170.588	520.445	-100.302	178.127	420.974	-98.865	162.797	309.527	-101.088	94.895	427.373	-91.582	77.931	308.335	-98.762	103.275	109.273	-136.733	22.045	38.832	-187.720	212.547	36.779	-99.681	322.293	56.508	-196.831	277.514	849.219	-401.445	323.848	726.832	-395.423	184.622	823.262	-446.703	216.197	692.539	-427.383	278.995	562.353	-403.301	253.484	447.504	-390.166	184.024	516.271	-401.371	106.299	432.800	-380.640	18.686	240.007	-342.844	-85.229	236.781	-278.607	41.546	112.661	-381.471	145.783	62.526	-304.520
62	0.61000	130.359	1533.326	-44.228	118.829	1550.167	-386.443	188.188	1497.473	-192.042	187.641	1499.493	-242.667	165.100	1271.175	29.707	119.434	1182.311	65.889	212.622	1065.364	70.118	264.867	953.212	70.606	120.538	1325.680	-477.596	93.590	1204.911	-504.253	172.860	1086.805	-520.360	224.733	983.454	-517.405	231.002	1030.092	-100.461	207.922	1034.774	-352.409	14.404	1028.350	-165.067	0.179	1002.440	-207.398	6.540	1023.216	-255.886	217.930	787.262	-40.855	110.214	767.113	-26.697	119.976	643.370	-66.584	173.707	520.497	-100.124	180.006	421.026	-98.354	163.789	309.568	-100.896	96.266	427.840	-91.793	78.997	308.964	-99.027	103.505	109.438	-136.887	22.125	39.091	-187.714	212.694	36.717	-99.721	322.398	56.195	-196.772	292.344	853.565	-399.891	339.919	731.426	-393.928	199.184	826.883	-446.684	233.329	695.917	-427.399	297.960	565.970	-402.215	276.812	450.148	-389.733	204.526	515.604	-400.114	129.940	428.656	-380.343	52.264	231.075	-343.713	-51.790	221.025	-279.981	82.967	105.282	-382.702	189.264	61.187	-305.306
63	0.62000	142.697	1534.336	-44.319	129.920	1550.596	-386.347	200.228	1498.149	-192.238	199.230	1500.203	-242.681	179.521	1272.722	29.875	134.368	1183.518	66.499	229.681	1068.020	70.036	283.759	956.650	70.056	128.893	1326.291	-478.235	100.405	1205.983	-504.993	178.459	1087.021	-522.311	229.476	983.138	-521.340	242.275	1029.709	-99.802	219.758	1035.980	-351.777	25.892	1028.723	-165.671	11.489	1002.938	-208.065	18.234	1023.663	-256.428	225.608	786.251	-40.735	116.749	768.631	-26.376	125.374	644.327	-66.791	176.331	520.333	-99.758	181.488	421.056	-98.099	164.942	309.536	-100.698	98.485	428.136	-91.752	80.022	309.424	-99.319	103.710	109.668	-137.046	22.681	38.831	-187.724	212.783	36.705	-99.755	322.653	55.948	-196.674	305.973	856.794	-398.404	355.796	735.965	-392.117	215.349	829.727	-446.041	250.052	698.988	-427.451	316.013	569.341	-401.040	299.163	452.568	-389.255	224.220	514.626	-398.944	153.821	424.126	-380.006	86.357	221.435	-344.709	-17.779	204.726	-281.743	124.966	97.862	-384.203	233.909	60.491	-306.517
